<?xml version="1.0" encoding="UTF-8" standalone="no"?>
<!-- Created with Inkscape (http://www.inkscape.org/) -->

<svg
   xmlns:dc="http://purl.org/dc/elements/1.1/"
   xmlns:cc="http://creativecommons.org/ns#"
   xmlns:rdf="http://www.w3.org/1999/02/22-rdf-syntax-ns#"
   xmlns:svg="http://www.w3.org/2000/svg"
   xmlns="http://www.w3.org/2000/svg"
   xmlns:sodipodi="http://sodipodi.sourceforge.net/DTD/sodipodi-0.dtd"
   xmlns:inkscape="http://www.inkscape.org/namespaces/inkscape"
   width="100"
   height="100"
   id="svg2"
   version="1.1"
   inkscape:version="0.48.4 r9939"
   sodipodi:docname="monero.svg">
  <defs
     id="defs4" />
  <sodipodi:namedview
     id="base"
     pagecolor="#ffffff"
     bordercolor="#666666"
     borderopacity="1.0"
     inkscape:pageopacity="0.0"
     inkscape:pageshadow="2"
     inkscape:zoom="3.959798"
     inkscape:cx="70.015086"
     inkscape:cy="79.180413"
     inkscape:document-units="px"
     inkscape:current-layer="layer1"
     showgrid="false"
     showguides="true"
     inkscape:guide-bbox="true"
     inkscape:snap-bbox="false"
     inkscape:window-width="1132"
     inkscape:window-height="1148"
     inkscape:window-x="420"
     inkscape:window-y="24"
     inkscape:window-maximized="0">
    <sodipodi:guide
       orientation="0,1"
       position="35.178572,37.5"
       id="guide2998" />
    <sodipodi:guide
       orientation="0,1"
       position="69.107143,29.285714"
       id="guide3000" />
    <sodipodi:guide
       orientation="1,0"
       position="49.464286,86.25"
       id="guide3002" />
    <sodipodi:guide
       orientation="1,0"
       position="23.392857,78.392857"
       id="guide3010" />
    <sodipodi:guide
       orientation="0,1"
       position="80.892857,70.892857"
       id="guide3012" />
    <sodipodi:guide
       orientation="1,0"
       position="75.357143,56.607143"
       id="guide3014" />
    <sodipodi:guide
       orientation="1,0"
       position="89.285714,46.071429"
       id="guide3022" />
    <sodipodi:guide
       orientation="0,1"
       position="64.464286,90"
       id="guide3024" />
    <sodipodi:guide
       orientation="0,1"
       position="56.071429,10.535714"
       id="guide3026" />
    <sodipodi:guide
       orientation="1,0"
       position="32.451151,61.619305"
       id="guide3093" />
    <sodipodi:guide
       orientation="1,0"
       position="66.543799,55.432121"
       id="guide3095" />
    <sodipodi:guide
       orientation="0,1"
       position="66.543799,49.876282"
       id="guide3097" />
  </sodipodi:namedview>
  <metadata
     id="metadata7">
    <rdf:RDF>
      <cc:Work
         rdf:about="">
        <dc:format>image/svg+xml</dc:format>
        <dc:type
           rdf:resource="http://purl.org/dc/dcmitype/StillImage" />
        <dc:title></dc:title>
      </cc:Work>
    </rdf:RDF>
  </metadata>
  <g
     inkscape:label="Layer 1"
     inkscape:groupmode="layer"
     id="layer1"
     transform="translate(0,-952.36218)">
    <path
       id="path3028-0"
       transform="translate(0,952.36218)"
       style="color:#000000;fill:#000000;fill-opacity:1;stroke:#000000;stroke-width:0;stroke-linecap:butt;stroke-linejoin:miter;stroke-miterlimit:4;stroke-opacity:1;stroke-dasharray:none;stroke-dashoffset:0;marker:none;visibility:visible;display:inline;overflow:visible;enable-background:accumulate"
       d="m 47.375,10.625 c -1.329157,0.06743 -2.646529,0.209859 -3.9375,0.40625 1.300953,-0.198782 2.597857,-0.338343 3.9375,-0.40625 z m 4.0625,0 c 1.339643,0.06791 2.667797,0.207468 3.96875,0.40625 C 54.105155,10.832326 52.777194,10.692957 51.4375,10.625 z M 23,20.78125 c -0.470801,0.427906 -0.925485,0.862475 -1.375,1.3125 0.444205,-0.444693 0.91001,-0.889415 1.375,-1.3125 z m 52.84375,0 c 0.465476,0.423085 0.899057,0.867807 1.34375,1.3125 -0.449515,-0.450025 -0.872949,-0.884594 -1.34375,-1.3125 z m -56.75,4.09375 c -1.20134,1.455687 -2.296598,3.004479 -3.28125,4.625 0.983896,-1.621086 2.080735,-3.168696 3.28125,-4.625 z M 15.8125,29.5 C 15.156065,30.580347 14.551898,31.698374 14,32.84375 14.551447,31.698036 15.156569,30.580724 15.8125,29.5 z M 14,32.84375 c -0.551898,1.145376 -1.059223,2.296181 -1.5,3.5 0.43796,-1.194728 0.952661,-2.362821 1.5,-3.5 z m 9.40625,-3.75 0,33.40625 -11.21875,0 c 0.985724,2.905606 2.304045,5.663239 3.90625,8.21875 l 16.34375,0 0,-20.59375 17.03125,16.78125 17.0625,-16.78125 0,20.59375 16.1875,0 C 84.323808,68.160405 85.637983,65.409419 86.625,62.5 l -11.28125,0 0,-33.40625 -25.875,25.5625 -26.0625,-25.5625 z m 59.3125,41.625 c -0.43437,0.692354 -0.899564,1.368831 -1.375,2.03125 0.477,-0.664356 0.939323,-1.336813 1.375,-2.03125 z m -1.375,2.03125 c -0.475436,0.662419 -0.954029,1.306794 -1.46875,1.9375 0.511759,-0.627323 0.995846,-1.278849 1.46875,-1.9375 z M 79.875,74.6875 c -0.444562,0.544739 -0.902371,1.073905 -1.375,1.59375 0.473074,-0.520497 0.930059,-1.048333 1.375,-1.59375 z m -68,-36.5 c -0.574121,1.845858 -1.014328,3.73607 -1.3125,5.6875 0.297888,-1.951643 0.738889,-3.84126 1.3125,-5.6875 z M 88.25,43.875 c 0.198782,1.300953 0.338343,2.629107 0.40625,3.96875 C 88.588293,46.504056 88.448924,45.176095 88.25,43.875 z m -77.9375,1.96875 c -0.134167,1.321122 -0.1875,2.674731 -0.1875,4.03125 0,-1.356519 0.05346,-2.710031 0.1875,-4.03125 z M 88.71875,49.875 c 0,0.67826 -0.02855,1.330178 -0.0625,2 0.03384,-0.66096 0.0625,-1.330532 0.0625,-2 z m -0.0625,2 c -0.03395,0.669822 -0.08917,1.339439 -0.15625,2 0.06819,-0.661927 0.121876,-1.328579 0.15625,-2 z m -0.15625,2 c -0.06708,0.660561 -0.150609,1.318273 -0.25,1.96875 0.101591,-0.655082 0.181454,-1.303344 0.25,-1.96875 z m -0.25,1.96875 c -0.09784,0.640305 -0.2154,1.276507 -0.34375,1.90625 0.128835,-0.626001 0.245053,-1.269824 0.34375,-1.90625 z m -78.09375,-4.3125 c 0.01848,0.440189 0.02966,0.876171 0.0625,1.3125 -0.03225,-0.437287 -0.04454,-0.871238 -0.0625,-1.3125 z m 0.125,1.78125 c 0.04292,0.491931 0.09537,0.982181 0.15625,1.46875 -0.05931,-0.482141 -0.114492,-0.981275 -0.15625,-1.46875 z m 0.15625,1.46875 c 0.06546,0.523214 0.132925,1.045889 0.21875,1.5625 -0.08688,-0.527071 -0.153066,-1.02852 -0.21875,-1.5625 z m 0.875,4.6875 C 11.441059,59.980305 11.570355,60.49663 11.71875,61 11.570411,60.495973 11.440703,59.980844 11.3125,59.46875 z m 4.96875,11.5 c 0.386751,0.606073 0.76903,1.198414 1.1875,1.78125 -0.414862,-0.578358 -0.803822,-1.179942 -1.1875,-1.78125 z m 1.1875,1.78125 c 0.414352,0.577101 0.836986,1.165616 1.28125,1.71875 C 18.300262,73.909083 17.887873,73.334298 17.46875,72.75 z M 76.375,78.4375 c -0.462185,0.436309 -0.923328,0.867557 -1.40625,1.28125 0.483034,-0.41394 0.943968,-0.844696 1.40625,-1.28125 z m -1.96875,1.75 c -1.141924,0.942129 -2.348926,1.814785 -3.59375,2.625 1.243106,-0.809664 2.453295,-1.683813 3.59375,-2.625 z M 24.5625,80.3125 C 25.280812,80.899102 26.021946,81.464622 26.78125,82 26.024204,81.465762 25.278799,80.897589 24.5625,80.3125 z M 26.78125,82 C 27.18025,82.281569 27.590236,82.545611 28,82.8125 27.591344,82.546529 27.179197,82.280589 26.78125,82 z m 41.9375,2.09375 c -0.580056,0.327919 -1.183338,0.638698 -1.78125,0.9375 0.600233,-0.299811 1.198997,-0.608354 1.78125,-0.9375 z M 30.15625,84.125 c 0.524467,0.295569 1.054699,0.571924 1.59375,0.84375 -0.534553,-0.269456 -1.073553,-0.550928 -1.59375,-0.84375 z m 3.96875,1.9375 c 0.445265,0.188161 0.890266,0.359214 1.34375,0.53125 C 35.018552,86.422651 34.567105,86.249495 34.125,86.0625 z m 29.71875,0.34375 c -0.498488,0.197068 -0.99176,0.385473 -1.5,0.5625 0.503422,-0.17537 1.006139,-0.367462 1.5,-0.5625 z m -4.625,1.53125 c -0.698227,0.17933 -1.412325,0.327383 -2.125,0.46875 0.722975,-0.143121 1.41688,-0.286559 2.125,-0.46875 z m -2.125,0.46875 c -0.829265,0.164494 -1.65283,0.294809 -2.5,0.40625 0.840827,-0.110671 1.676795,-0.243288 2.5,-0.40625 z m -2.5,0.40625 c -0.84717,0.111441 -1.699206,0.19339 -2.5625,0.25 0.860893,-0.05664 1.717634,-0.138798 2.5625,-0.25 z m -2.5625,0.25 c -0.863294,0.05661 -1.747364,0.09375 -2.625,0.09375 0.880042,0 1.759369,-0.03679 2.625,-0.09375 z m -2.625,0.09375 c -0.877902,0 -1.761496,-0.03718 -2.625,-0.09375 0.868713,0.05737 1.741768,0.09375 2.625,0.09375 z m -2.625,-0.09375 c -0.863504,-0.05657 -1.71517,-0.13863 -2.5625,-0.25 0.851808,0.112798 1.694378,0.192674 2.5625,0.25 z m -2.5625,-0.25 c -0.84733,-0.11137 -1.670621,-0.241851 -2.5,-0.40625 0.82299,0.16359 1.659366,0.294931 2.5,0.40625 z m 5.1875,-86.84375 c -26.446387,0 -47.875,21.459862 -47.875,47.90625 0,26.446388 21.428613,47.875 47.875,47.875 26.446387,0 47.875,-21.428612 47.875,-47.875 0,-26.446388 -21.428613,-47.90625 -47.875,-47.90625 z m 0,8.59375 c 21.704306,0 39.3125,17.608192 39.3125,39.3125 0,21.704308 -17.608194,39.28125 -39.3125,39.28125 -21.704306,0 -39.28125,-17.576942 -39.28125,-39.28125 0,-21.704308 17.576944,-39.3125 39.28125,-39.3125 z" />
  </g>
</svg>
