<?xml version="1.0" encoding="UTF-8" standalone="no"?>
<!-- Created with Inkscape (http://www.inkscape.org/) -->

<svg
   xmlns:dc="http://purl.org/dc/elements/1.1/"
   xmlns:cc="http://creativecommons.org/ns#"
   xmlns:rdf="http://www.w3.org/1999/02/22-rdf-syntax-ns#"
   xmlns:svg="http://www.w3.org/2000/svg"
   xmlns="http://www.w3.org/2000/svg"
   xmlns:sodipodi="http://sodipodi.sourceforge.net/DTD/sodipodi-0.dtd"
   xmlns:inkscape="http://www.inkscape.org/namespaces/inkscape"
   width="100"
   height="100"
   id="svg2"
   version="1.1"
   inkscape:version="0.48.4 r9939"
   sodipodi:docname="moneromono.svg">
  <defs
     id="defs4" />
  <sodipodi:namedview
     id="base"
     pagecolor="#ffffff"
     bordercolor="#666666"
     borderopacity="1.0"
     inkscape:pageopacity="0.0"
     inkscape:pageshadow="2"
     inkscape:zoom="3.959798"
     inkscape:cx="70.015086"
     inkscape:cy="79.180413"
     inkscape:document-units="px"
     inkscape:current-layer="layer1"
     showgrid="false"
     showguides="true"
     inkscape:guide-bbox="true"
     inkscape:snap-bbox="false"
     inkscape:window-width="1132"
     inkscape:window-height="1148"
     inkscape:window-x="420"
     inkscape:window-y="24"
     inkscape:window-maximized="0">
    <sodipodi:guide
       orientation="0,1"
       position="35.178572,37.5"
       id="guide2998" />
    <sodipodi:guide
       orientation="0,1"
       position="69.107143,29.285714"
       id="guide3000" />
    <sodipodi:guide
       orientation="1,0"
       position="49.464286,86.25"
       id="guide3002" />
    <sodipodi:guide
       orientation="1,0"
       position="23.392857,78.392857"
       id="guide3010" />
    <sodipodi:guide
       orientation="0,1"
       position="80.892857,70.892857"
       id="guide3012" />
    <sodipodi:guide
       orientation="1,0"
       position="75.357143,56.607143"
       id="guide3014" />
    <sodipodi:guide
       orientation="1,0"
       position="89.285714,46.071429"
       id="guide3022" />
    <sodipodi:guide
       orientation="0,1"
       position="64.464286,90"
       id="guide3024" />
    <sodipodi:guide
       orientation="0,1"
       position="56.071429,10.535714"
       id="guide3026" />
    <sodipodi:guide
       orientation="1,0"
       position="32.451151,61.619305"
       id="guide3093" />
    <sodipodi:guide
       orientation="1,0"
       position="66.543799,55.432121"
       id="guide3095" />
    <sodipodi:guide
       orientation="0,1"
       position="66.543799,49.876282"
       id="guide3097" />
  </sodipodi:namedview>
  <metadata
     id="metadata7">
    <rdf:RDF>
      <cc:Work
         rdf:about="">
        <dc:format>image/svg+xml</dc:format>
        <dc:type
           rdf:resource="http://purl.org/dc/dcmitype/StillImage" />
        <dc:title></dc:title>
      </cc:Work>
    </rdf:RDF>
  </metadata>
  <g
     inkscape:label="Layer 1"
     inkscape:groupmode="layer"
     id="layer1"
     transform="translate(0,-952.36218)">
    <path
       style="color:#000000;fill:#000000;fill-opacity:1;stroke:#000000;stroke-width:0;stroke-linecap:butt;stroke-linejoin:miter;stroke-miterlimit:4;stroke-opacity:1;stroke-dasharray:none;stroke-dashoffset:0;marker:none;visibility:visible;display:inline;overflow:visible;enable-background:accumulate"
       d="M 47.375 10.625 C 46.045843 10.692429 44.728471 10.834859 43.4375 11.03125 C 44.738453 10.832468 46.035357 10.692907 47.375 10.625 z M 51.4375 10.625 C 52.777143 10.692907 54.105297 10.832468 55.40625 11.03125 C 54.105155 10.832326 52.777194 10.692957 51.4375 10.625 z M 23 20.78125 C 22.529199 21.209156 22.074515 21.643725 21.625 22.09375 C 22.069205 21.649057 22.53501 21.204335 23 20.78125 z M 75.84375 20.78125 C 76.309226 21.204335 76.742807 21.649057 77.1875 22.09375 C 76.737985 21.643725 76.314551 21.209156 75.84375 20.78125 z M 19.09375 24.875 C 17.89241 26.330687 16.797152 27.879479 15.8125 29.5 C 16.796396 27.878914 17.893235 26.331304 19.09375 24.875 z M 15.8125 29.5 C 15.156065 30.580347 14.551898 31.698374 14 32.84375 C 14.551447 31.698036 15.156569 30.580724 15.8125 29.5 z M 14 32.84375 C 13.448102 33.989126 12.940777 35.139931 12.5 36.34375 C 12.93796 35.149022 13.452661 33.980929 14 32.84375 z M 23.40625 29.09375 L 23.40625 62.5 L 12.1875 62.5 C 13.173224 65.405606 14.491545 68.163239 16.09375 70.71875 L 32.4375 70.71875 L 32.4375 50.125 L 49.46875 66.90625 L 66.53125 50.125 L 66.53125 70.71875 L 82.71875 70.71875 C 84.323808 68.160405 85.637983 65.409419 86.625 62.5 L 75.34375 62.5 L 75.34375 29.09375 L 49.46875 54.65625 L 23.40625 29.09375 z M 82.71875 70.71875 C 82.28438 71.411104 81.819186 72.087581 81.34375 72.75 C 81.82075 72.085644 82.283073 71.413187 82.71875 70.71875 z M 81.34375 72.75 C 80.868314 73.412419 80.389721 74.056794 79.875 74.6875 C 80.386759 74.060177 80.870846 73.408651 81.34375 72.75 z M 79.875 74.6875 C 79.430438 75.232239 78.972629 75.761405 78.5 76.28125 C 78.973074 75.760753 79.430059 75.232917 79.875 74.6875 z M 11.875 38.1875 C 11.300879 40.033358 10.860672 41.92357 10.5625 43.875 C 10.860388 41.923357 11.301389 40.03374 11.875 38.1875 z M 88.25 43.875 C 88.448782 45.175953 88.588343 46.504107 88.65625 47.84375 C 88.588293 46.504056 88.448924 45.176095 88.25 43.875 z M 10.3125 45.84375 C 10.178333 47.164872 10.125 48.518481 10.125 49.875 C 10.125 48.518481 10.178464 47.164969 10.3125 45.84375 z M 88.71875 49.875 C 88.71875 50.55326 88.690203 51.205178 88.65625 51.875 C 88.690088 51.21404 88.71875 50.544468 88.71875 49.875 z M 88.65625 51.875 C 88.622297 52.544822 88.567084 53.214439 88.5 53.875 C 88.568188 53.213073 88.621876 52.546421 88.65625 51.875 z M 88.5 53.875 C 88.432916 54.535561 88.349391 55.193273 88.25 55.84375 C 88.351591 55.188668 88.431454 54.540406 88.5 53.875 z M 88.25 55.84375 C 88.152163 56.484055 88.0346 57.120257 87.90625 57.75 C 88.035085 57.123999 88.151303 56.480176 88.25 55.84375 z M 10.15625 51.53125 C 10.174726 51.971439 10.185908 52.407421 10.21875 52.84375 C 10.186503 52.406463 10.174208 51.972512 10.15625 51.53125 z M 10.28125 53.3125 C 10.324169 53.804431 10.376623 54.294681 10.4375 54.78125 C 10.378192 54.299109 10.323008 53.799975 10.28125 53.3125 z M 10.4375 54.78125 C 10.502962 55.304464 10.570425 55.827139 10.65625 56.34375 C 10.569374 55.816679 10.503184 55.31523 10.4375 54.78125 z M 11.3125 59.46875 C 11.441059 59.980305 11.570355 60.49663 11.71875 61 C 11.570411 60.495973 11.440703 59.980844 11.3125 59.46875 z M 16.28125 70.96875 C 16.668001 71.574823 17.05028 72.167164 17.46875 72.75 C 17.053888 72.171642 16.664928 71.570058 16.28125 70.96875 z M 17.46875 72.75 C 17.883102 73.327101 18.305736 73.915616 18.75 74.46875 C 18.300262 73.909083 17.887873 73.334298 17.46875 72.75 z M 76.375 78.4375 C 75.912815 78.873809 75.451672 79.305057 74.96875 79.71875 C 75.451784 79.30481 75.912718 78.874054 76.375 78.4375 z M 74.40625 80.1875 C 73.264326 81.129629 72.057324 82.002285 70.8125 82.8125 C 72.055606 82.002836 73.265795 81.128687 74.40625 80.1875 z M 24.5625 80.3125 C 25.280812 80.899102 26.021946 81.464622 26.78125 82 C 26.024204 81.465762 25.278799 80.897589 24.5625 80.3125 z M 26.78125 82 C 27.18025 82.281569 27.590236 82.545611 28 82.8125 C 27.591344 82.546529 27.179197 82.280589 26.78125 82 z M 68.71875 84.09375 C 68.138694 84.421669 67.535412 84.732448 66.9375 85.03125 C 67.537733 84.731439 68.136497 84.422896 68.71875 84.09375 z M 30.15625 84.125 C 30.680717 84.420569 31.210949 84.696924 31.75 84.96875 C 31.215447 84.699294 30.676447 84.417822 30.15625 84.125 z M 34.125 86.0625 C 34.570265 86.250661 35.015266 86.421714 35.46875 86.59375 C 35.018552 86.422651 34.567105 86.249495 34.125 86.0625 z M 63.84375 86.40625 C 63.345262 86.603318 62.85199 86.791723 62.34375 86.96875 C 62.847172 86.79338 63.349889 86.601288 63.84375 86.40625 z M 59.21875 87.9375 C 58.520523 88.11683 57.806425 88.264883 57.09375 88.40625 C 57.816725 88.263129 58.51063 88.119691 59.21875 87.9375 z M 57.09375 88.40625 C 56.264485 88.570744 55.44092 88.701059 54.59375 88.8125 C 55.434577 88.701829 56.270545 88.569212 57.09375 88.40625 z M 54.59375 88.8125 C 53.74658 88.923941 52.894544 89.00589 52.03125 89.0625 C 52.892143 89.005857 53.748884 88.923702 54.59375 88.8125 z M 52.03125 89.0625 C 51.167956 89.11911 50.283886 89.15625 49.40625 89.15625 C 50.286292 89.15625 51.165619 89.119455 52.03125 89.0625 z M 49.40625 89.15625 C 48.528348 89.15625 47.644754 89.11907 46.78125 89.0625 C 47.649963 89.119865 48.523018 89.15625 49.40625 89.15625 z M 46.78125 89.0625 C 45.917746 89.00593 45.06608 88.92387 44.21875 88.8125 C 45.070558 88.925298 45.913128 89.005174 46.78125 89.0625 z M 44.21875 88.8125 C 43.37142 88.70113 42.548129 88.570649 41.71875 88.40625 C 42.54174 88.56984 43.378116 88.701181 44.21875 88.8125 z "
       transform="translate(0,952.36218)"
       id="path3028-0" />
  </g>
</svg>
